<?xml version="1.0" encoding="UTF-8" standalone="no"?>
<svg
   id="emoji"
   viewBox="0 0 52.000003 22.0018"
   width="46.222225"
   height="19.557156"
   version="1.1"
   sodipodi:docname="unchecked_2.svg"
   inkscape:export-filename="unchecked_2.svg"
   inkscape:export-xdpi="96"
   inkscape:export-ydpi="96"
   xmlns:inkscape="http://www.inkscape.org/namespaces/inkscape"
   xmlns:sodipodi="http://sodipodi.sourceforge.net/DTD/sodipodi-0.dtd"
   xmlns="http://www.w3.org/2000/svg"
   xmlns:svg="http://www.w3.org/2000/svg">
  <defs
     id="defs4" />
  <sodipodi:namedview
     id="namedview4"
     pagecolor="#ffffff"
     bordercolor="#000000"
     borderopacity="0.25"
     inkscape:showpageshadow="2"
     inkscape:pageopacity="0.0"
     inkscape:pagecheckerboard="0"
     inkscape:deskcolor="#d1d1d1">
    <inkscape:page
       x="0"
       y="0"
       width="52.000004"
       height="22.001801"
       id="page1"
       margin="0"
       bleed="0" />
  </sodipodi:namedview>
  <g
     id="g1"
     transform="translate(-0.1562001)">
    <path
       fill="#d0cfce"
       stroke="none"
       stroke-linecap="round"
       stroke-linejoin="round"
       stroke-miterlimit="10"
       stroke-width="2"
       d="M 41.1765,20.9803 H 11.1359 c -5.5115999,0 -9.9796999,-4.4681 -9.9796999,-9.9797 v 0 c 0,-5.5116 4.4681,-9.9797 9.9796999,-9.9797 h 30.0406 c 5.5116,0 9.9797,4.4681 9.9797,9.9797 v 0 c 0,5.5117 -4.468,9.9797 -9.9797,9.9797 z"
       id="path1" />
    <circle
       cx="40.2509"
       cy="11.0009"
       r="10.0009"
       fill="#ea5a47"
       stroke="none"
       stroke-linecap="round"
       stroke-linejoin="round"
       stroke-miterlimit="10"
       stroke-width="2"
       id="circle1"
       style="fill:#b1cc33;fill-opacity:1" />
    <path
       fill="#ea5a47"
       stroke="none"
       stroke-linecap="round"
       stroke-linejoin="round"
       stroke-miterlimit="10"
       stroke-width="2"
       d="m 46.8495,3.4468 c 4.0892,3.7129 4.3944,10.0377 0.6815,14.127 -3.7129,4.0893 -10.0377,4.3943 -14.127,0.6815"
       id="path2"
       style="fill:#5c9e31;fill-opacity:1" />
    <path
       fill="none"
       stroke="#000000"
       stroke-linecap="round"
       stroke-linejoin="round"
       stroke-miterlimit="10"
       stroke-width="2"
       d="M 41.1765,20.9803 H 11.1359 c -5.5115999,0 -9.9796999,-4.4681 -9.9796999,-9.9797 v 0 c 0,-5.5116 4.4681,-9.9797 9.9796999,-9.9797 h 30.0406 c 5.5116,0 9.9797,4.4681 9.9797,9.9797 v 0 c 0,5.5117 -4.468,9.9797 -9.9797,9.9797 z"
       id="path3" />
    <ellipse
       cx="40.698723"
       cy="11.0009"
       fill="none"
       stroke="#000000"
       stroke-linecap="round"
       stroke-linejoin="round"
       stroke-miterlimit="10"
       stroke-width="2.04026"
       id="circle3"
       rx="10.428591"
       ry="9.9807701" />
  </g>
</svg>
