<?xml version="1.0" encoding="UTF-8" standalone="no"?>
<svg
   id="emoji"
   viewBox="0 0 50.000002 20.001803"
   width="44.444447"
   height="17.779381"
   version="1.1"
   sodipodi:docname="unchecked_2.svg"
   inkscape:export-filename="unchecked_3.svg"
   inkscape:export-xdpi="96"
   inkscape:export-ydpi="96"
   xmlns:inkscape="http://www.inkscape.org/namespaces/inkscape"
   xmlns:sodipodi="http://sodipodi.sourceforge.net/DTD/sodipodi-0.dtd"
   xmlns="http://www.w3.org/2000/svg"
   xmlns:svg="http://www.w3.org/2000/svg">
  <defs
     id="defs4" />
  <sodipodi:namedview
     id="namedview4"
     pagecolor="#ffffff"
     bordercolor="#000000"
     borderopacity="0.25"
     inkscape:showpageshadow="2"
     inkscape:pageopacity="0.0"
     inkscape:pagecheckerboard="0"
     inkscape:deskcolor="#d1d1d1">
    <inkscape:page
       x="0"
       y="0"
       width="50.000004"
       height="20.001802"
       id="page1"
       margin="0"
       bleed="0" />
  </sodipodi:namedview>
  <path
     fill="#d0cfce"
     stroke="none"
     stroke-linecap="round"
     stroke-linejoin="round"
     stroke-miterlimit="10"
     stroke-width="2"
     d="M 40.0203,19.9803 H 9.9797 C 4.4681001,19.9803 4.8727819e-8,15.5122 4.8727819e-8,10.0006 v 0 C 4.8727819e-8,4.489 4.4681001,0.02089999 9.9797,0.02089999 H 40.0203 C 45.5319,0.02089999 50,4.489 50,10.0006 v 0 c 0,5.5117 -4.468,9.9797 -9.9797,9.9797 z"
     id="path1" />
  <circle
     cx="10.083538"
     cy="10.0009"
     r="10.0009"
     fill="#ea5a47"
     stroke="none"
     stroke-linecap="round"
     stroke-linejoin="round"
     stroke-miterlimit="10"
     stroke-width="2"
     id="circle1" />
  <path
     fill="#ea5a47"
     stroke="none"
     stroke-linecap="round"
     stroke-linejoin="round"
     stroke-miterlimit="10"
     stroke-width="1.98985"
     d="m 16.837856,2.7453473 c 0.180386,0.159836 0.353055,0.3242378 0.51804,0.4928521 3.601777,3.6810182 3.541364,9.3697336 0.168327,13.3918316 -3.470719,4.138577 -10.2287944,4.438345 -13.989038,0.848938"
     id="path2"
     style="fill:#c83737"
     sodipodi:nodetypes="cssc" />
</svg>
