<?xml version="1.0" encoding="UTF-8" standalone="no"?>
<svg
   id="emoji"
   viewBox="0 0 52.156202 22.001802"
   width="46.361069"
   height="19.557158"
   version="1.1"
   sodipodi:docname="unchecked_2.svg"
   inkscape:export-filename="unchecked_2.svg"
   inkscape:export-xdpi="96"
   inkscape:export-ydpi="96"
   xmlns:inkscape="http://www.inkscape.org/namespaces/inkscape"
   xmlns:sodipodi="http://sodipodi.sourceforge.net/DTD/sodipodi-0.dtd"
   xmlns="http://www.w3.org/2000/svg"
   xmlns:svg="http://www.w3.org/2000/svg">
  <defs
     id="defs4" />
  <sodipodi:namedview
     id="namedview4"
     pagecolor="#ffffff"
     bordercolor="#000000"
     borderopacity="0.25"
     inkscape:showpageshadow="2"
     inkscape:pageopacity="0.0"
     inkscape:pagecheckerboard="0"
     inkscape:deskcolor="#d1d1d1">
    <inkscape:page
       x="0"
       y="0"
       width="52.1562"
       height="22.001802"
       id="page2"
       margin="0"
       bleed="0" />
  </sodipodi:namedview>
  <g
     id="color"
     transform="translate(-9.9218999,-24.9991)">
    <path
       fill="#d0cfce"
       stroke="none"
       stroke-linecap="round"
       stroke-linejoin="round"
       stroke-miterlimit="10"
       stroke-width="2"
       d="M 51.0984,45.9794 H 21.0578 c -5.5116,0 -9.9797,-4.4681 -9.9797,-9.9797 v 0 c 0,-5.5116 4.4681,-9.9797 9.9797,-9.9797 h 30.0406 c 5.5116,0 9.9797,4.4681 9.9797,9.9797 v 0 c 0,5.5117 -4.468,9.9797 -9.9797,9.9797 z"
       id="path1" />
    <circle
       cx="20.9228"
       cy="36"
       r="10.0009"
       fill="#ea5a47"
       stroke="none"
       stroke-linecap="round"
       stroke-linejoin="round"
       stroke-miterlimit="10"
       stroke-width="2"
       id="circle1" />
    <path
       fill="#ea5a47"
       stroke="none"
       stroke-linecap="round"
       stroke-linejoin="round"
       stroke-miterlimit="10"
       stroke-width="2"
       d="m 27.5214,28.4459 c 4.0892,3.7129 4.3944,10.0377 0.6815,14.127 -3.7129,4.0893 -10.0377,4.3943 -14.127,0.6815"
       id="path2" />
  </g>
  <g
     id="line"
     transform="translate(-9.9218999,-24.9991)">
    <path
       fill="none"
       stroke="#000000"
       stroke-linecap="round"
       stroke-linejoin="round"
       stroke-miterlimit="10"
       stroke-width="2"
       d="M 51.0984,45.9794 H 21.0578 c -5.5116,0 -9.9797,-4.4681 -9.9797,-9.9797 v 0 c 0,-5.5116 4.4681,-9.9797 9.9797,-9.9797 h 30.0406 c 5.5116,0 9.9797,4.4681 9.9797,9.9797 v 0 c 0,5.5117 -4.468,9.9797 -9.9797,9.9797 z"
       id="path3" />
    <circle
       cx="20.9228"
       cy="36"
       r="10.0009"
       fill="none"
       stroke="#000000"
       stroke-linecap="round"
       stroke-linejoin="round"
       stroke-miterlimit="10"
       stroke-width="2"
       id="circle3" />
    <path
       fill="none"
       stroke="#000000"
       stroke-linecap="round"
       stroke-linejoin="round"
       stroke-miterlimit="10"
       stroke-width="2"
       d="m 27.5214,28.4459 c 4.0892,3.7129 4.3944,10.0377 0.6815,14.127 -3.7129,4.0893 -10.0377,4.3943 -14.127,0.6815"
       id="path4" />
  </g>
</svg>
