<?xml version="1.0" encoding="UTF-8" standalone="no"?>
<svg
   width="24"
   height="24"
   viewBox="0 0 24 24"
   version="1.1"
   id="svg1"
   sodipodi:docname="unchecked.svg"
   inkscape:export-filename="unchecked_white.png"
   inkscape:export-xdpi="96"
   inkscape:export-ydpi="96"
   xmlns:inkscape="http://www.inkscape.org/namespaces/inkscape"
   xmlns:sodipodi="http://sodipodi.sourceforge.net/DTD/sodipodi-0.dtd"
   xmlns="http://www.w3.org/2000/svg"
   xmlns:svg="http://www.w3.org/2000/svg">
  <defs
     id="defs1" />
  <sodipodi:namedview
     id="namedview1"
     pagecolor="#ffffff"
     bordercolor="#000000"
     borderopacity="0.25"
     inkscape:showpageshadow="2"
     inkscape:pageopacity="0.0"
     inkscape:pagecheckerboard="0"
     inkscape:deskcolor="#d1d1d1">
    <inkscape:page
       x="0"
       y="0"
       width="24"
       height="24"
       id="page2"
       margin="0"
       bleed="0" />
  </sodipodi:namedview>
  <!-- Uploaded to: SVG Repo, www.svgrepo.com, Generator: SVG Repo Mixer Tools -->
  <title
     id="title1">ic_fluent_checkbox_unchecked_24_regular</title>
  <desc
     id="desc1">Created with Sketch.</desc>
  <g
     id="ðŸ”-Product-Icons"
     stroke="none"
     stroke-width="1"
     fill="none"
     fill-rule="evenodd"
     style="fill:#ffffff">
    <g
       id="ic_fluent_checkbox_unchecked_24_regular"
       fill="#212121"
       fill-rule="nonzero"
       style="fill:#ffffff">
      <path
         d="m 5.75,3 h 12.5 C 19.768783,3 21,4.2312169 21,5.75 v 12.5 C 21,19.768783 19.768783,21 18.25,21 H 5.75 C 4.2312169,21 3,19.768783 3,18.25 V 5.75 C 3,4.2312169 4.2312169,3 5.75,3 Z m 0,1.5 C 5.0596441,4.5 4.5,5.0596441 4.5,5.75 v 12.5 c 0,0.690356 0.5596441,1.25 1.25,1.25 h 12.5 c 0.690356,0 1.25,-0.559644 1.25,-1.25 V 5.75 C 19.5,5.0596441 18.940356,4.5 18.25,4.5 Z"
         id="ðŸŽ¨Color"
         style="fill:#ffffff" />
    </g>
  </g>
</svg>
